<?xml version="1.0" encoding="UTF-8"?>
<svg width="709px" height="140px" viewBox="0 0 709 140" xmlns="http://www.w3.org/2000/svg" xmlns:xlink="http://www.w3.org/1999/xlink" version="1.1">
 <!-- Generated by Pixelmator Pro 1.5.1 -->
 <g id="group">
  <path id="Pfad" d="M92.008 99.492 C92.008 80.892 77.558 70.262 62.112 62.621 L44.175 53.654 C37.366 50.167 32.883 47.175 32.883 39.371 32.883 31.563 39.196 27.579 47.829 27.579 55.471 27.579 65.599 30.567 73.241 37.212 L88.187 16.117 C75.733 6.983 61.283 4.158 47.829 4.158 22.754 4.158 3.816 18.775 3.816 40.533 3.816 56.808 14.116 67.938 30.224 76.408 L53.145 88.362 C57.296 90.525 62.612 94.842 62.612 101.154 62.612 110.621 56.3 114.275 47.333 114.275 35.041 114.275 24.079 107.3 16.108 101.154 L0 123.075 C16.608 135.863 32.883 138.188 45.837 138.188 76.729 138.188 92.008 121.579 92.008 99.492 Z M191.542 136.858 L191.542 112.113 140.721 112.113 140.721 82.054 182.241 82.054 182.241 58.471 140.721 58.471 140.721 30.071 187.554 30.071 187.554 6.321 111.487 6.321 111.487 136.858 Z M326.3 140.017 L326.3 6.321 297.071 6.321 297.071 78.4 214.525 2.666 214.525 136.858 243.925 136.858 243.925 63.784 Z M469.017 136.858 L404.575 0.341 340.633 136.858 371.692 136.858 385.146 107.133 424.508 107.133 437.958 136.858 Z M415.871 86.037 L393.116 86.037 403.913 61.959 Z M612.313 30.071 L612.313 6.321 528.938 6.321 528.938 30.071 556.008 30.071 556.008 136.858 585.242 136.858 585.242 30.071 Z M708.842 136.858 L708.842 112.113 658.017 112.113 658.017 82.054 699.538 82.054 699.538 58.471 658.017 58.471 658.017 30.071 704.854 30.071 704.854 6.321 628.788 6.321 628.788 136.858 Z" fill="#d7dbdc" fill-opacity="1" stroke="none"/>
  <path id="Pfad-1" d="M518.504 12.263 C518.504 8.984 515.841 6.325 512.562 6.325 L483.333 6.325 C480.05 6.325 477.392 8.984 477.392 12.263 477.392 15.542 480.05 18.196 483.333 18.196 L483.333 123.579 C483.333 131.65 489.875 138.196 497.946 138.196 506.021 138.196 512.562 131.65 512.562 123.579 L512.562 122.246 512.562 18.196 C515.841 18.196 518.504 15.542 518.504 12.263 Z" fill="#d7dbdc" fill-opacity="1" stroke="none"/>
 </g>
</svg>
