<?xml version="1.0" encoding="UTF-8"?>
<!-- Generator: Adobe Illustrator 18.1.1, SVG Export Plug-In . SVG Version: 6.00 Build 0)  -->
<svg version="1.1" id="Medium" xmlns="http://www.w3.org/2000/svg" xmlns:xlink="http://www.w3.org/1999/xlink" x="0px" y="0px" viewBox="0 0 64 64" enable-background="new 0 0 64 64" xml:space="preserve">
<path fill="#EA7D24" d="M32,55.963L32,55.963c2.2,0,4-1.8,4-4V12.037c0-2.2-1.8-4-4-4h0c-2.2,0-4,1.8-4,4v39.926  C28,54.163,29.8,55.963,32,55.963z"/>
<path fill="#EA7D24" d="M49.593,29.63L49.593,29.63c1.556-1.556,1.556-4.101,0-5.657L34.824,9.204c-1.556-1.556-4.101-1.556-5.657,0  l0,0c-1.556,1.556-1.556,4.101,0,5.657L43.936,29.63C45.491,31.185,48.037,31.185,49.593,29.63z"/>
<path fill="#EA7D24" d="M14.241,29.63L14.241,29.63c-1.556-1.556-1.556-4.101,0-5.657L29.01,9.204c1.556-1.556,4.101-1.556,5.657,0  l0,0c1.556,1.556,1.556,4.101,0,5.657L19.897,29.63C18.342,31.185,15.796,31.185,14.241,29.63z"/>
</svg>