<svg xmlns="http://www.w3.org/2000/svg" width="24" height="24" viewBox="0 0 24 24"><path d="M10.606 0h-10.606v10.609l13.393 13.391 10.607-10.606-13.394-13.394zm-7.02 6.414c-.782-.785-.781-2.047 0-2.83.782-.782 2.049-.779 2.829-.001.783.783.782 2.048 0 2.831-.783.781-2.046.781-2.829 0zm9.807 14.757l-8.484-8.484 7.778-7.778 8.486 8.485-7.78 7.777zm3.534-6.36l-5.656-5.656.707-.709 5.656 5.657-.707.708zm-1.414 1.414l-5.656-5.656.707-.707 5.656 5.656-.707.707zm-3.535-.707l-3.534-3.536.707-.706 3.535 3.535-.708.707z"/></svg>