<svg xmlns="http://www.w3.org/2000/svg" width="24" height="24" viewBox="0 0 24 24"><path d="M22 6v16h-16v-16h16zm2-2h-20v20h20v-20zm-24 17v-21h21v2h-19v19h-2zm9.138-8.431h1.388l.78 1.157.771-1.157h1.345l-1.456 2.074 1.637 2.357h-1.389l-.926-1.397-.925 1.397h-1.363l1.594-2.331-1.456-2.1zm5.121 4.431v-.946c1.911-1.726 3.031-2.646 3.044-3.62 0-.545-.318-.977-1.09-.977-.575 0-1.08.288-1.43.545l-.442-1.111c.494-.38 1.286-.689 2.181-.689 1.522 0 2.345.884 2.345 2.087 0 1.431-1.304 2.494-2.396 3.404v.021h2.529v1.286h-4.741z"/></svg>