<svg xmlns="http://www.w3.org/2000/svg" width="24" height="24" viewBox="0 0 24 24"><path d="M24 3v10h-4.809l-2.134-2h4.943v-6h-12v-.384l-3.17 2.972 2.27 2.412h-2.747l-2.353-2.5 8-7.5v3h12zm-6.712 6.42c-.581 0-.936-.41-1.073-.92h1.119l.055-.334h-1.232l-.002-.332h1.291l.054-.334h-1.292c.131-.518.476-.938 1.025-.938.188 0 .398.033.64.104l.127-.527c-.309-.092-.603-.139-.873-.139-.994 0-1.591.691-1.766 1.5h-.361l-.055.334h.367l-.002.332h-.422l-.054.334h.523c.173.809.777 1.5 1.848 1.5.25 0 .501-.047.746-.137l-.147-.539c-.175.064-.348.096-.516.096zm2.712 7.08l-8-7.5v3h-12v9h12v3l8-7.5zm-13.332 2.062v.438h-.418v-.416c-.431-.008-.878-.11-1.25-.303l.19-.686c.398.155.928.319 1.343.226.479-.108.577-.601.048-.838-.389-.181-1.573-.336-1.573-1.352 0-.567.432-1.075 1.242-1.188v-.443h.418v.424c.301.008.64.061 1.017.176l-.15.687c-.319-.112-.674-.215-1.018-.193-.62.036-.676.573-.242.798.713.335 1.644.584 1.644 1.478 0 .714-.562 1.095-1.251 1.192z"/></svg>