<svg xmlns="http://www.w3.org/2000/svg" width="24" height="24" viewBox="0 0 24 24"><path d="M6 12h10v1h-10v-1zm7.816-3h-7.816v1h9.047c-.45-.283-.863-.618-1.231-1zm-7.816-2h6.5c-.134-.32-.237-.656-.319-1h-6.181v1zm13 3.975v2.568c0 4.107-6 2.457-6 2.457s1.518 6-2.638 6h-7.362v-20h9.5c.312-.749.763-1.424 1.316-2h-12.816v24h10.189c3.163 0 9.811-7.223 9.811-9.614v-3.886c-.623.26-1.297.421-2 .475zm-.5-10.975c-2.483 0-4.5 2.015-4.5 4.5s2.017 4.5 4.5 4.5 4.5-2.015 4.5-4.5-2.017-4.5-4.5-4.5zm2.122 3.086l-1.414 1.414 1.414 1.414-.708.707-1.414-1.414-1.414 1.414-.707-.707 1.414-1.414-1.414-1.414.707-.708 1.414 1.414 1.414-1.414.708.708z"/></svg>