<svg xmlns="http://www.w3.org/2000/svg" width="24" height="24" viewBox="0 0 24 24"><path d="M8 1c0-.552.448-1 1-1h6c.552 0 1 .448 1 1s-.448 1-1 1h-6c-.552 0-1-.448-1-1zm12.759 19.498l-3.743-7.856c-1.041-2.186-2.016-4.581-2.016-7.007v-1.635h-2v2c.09 2.711 1.164 5.305 2.21 7.502l3.743 7.854c.143.302-.068.644-.376.644h-1.497l-4.377-9h-3.682c.882-1.908 1.886-4.377 1.973-7l.006-2h-2v1.635c0 2.426-.975 4.82-2.016 7.006l-3.743 7.856c-.165.348-.241.708-.241 1.058 0 1.283 1.023 2.445 2.423 2.445h13.154c1.4 0 2.423-1.162 2.423-2.446 0-.35-.076-.709-.241-1.056z"/></svg>