<svg xmlns="http://www.w3.org/2000/svg" width="24" height="24" viewBox="0 0 24 24"><path d="M23 19.586l-2.832-2.832c.524-.79.832-1.735.832-2.754 0-2.761-2.239-5-5-5s-5 2.239-5 5 2.239 5 5 5c1.019 0 1.964-.308 2.754-.832l2.832 2.832 1.414-1.414zm-7-2.586c-1.654 0-3-1.346-3-3s1.346-3 3-3 3 1.346 3 3-1.346 3-3 3zm7-2v-12h1v12h-1zm-4-7.315v-4.685h2v6.11c-.574-.586-1.251-1.068-2-1.425zm-10-4.685v12h-1v-12h1zm-5 0h2v12h-2v-12zm-4 0h2v12h-2v-12zm17 4.08c-.328-.047-.66-.08-1-.08v-4h1v4.08zm-6 2.03v-6.11h3v4.295c-1.152.344-2.18.977-3 1.815z"/></svg>