<svg xmlns="http://www.w3.org/2000/svg" width="24" height="24" viewBox="0 0 24 24"><path d="M15.794 2.707c-.634-.634-.174-1.707.707-1.707.256 0 .512.098.707.293l4.243 4.242c.391.391.391 1.023 0 1.414s-1.023.391-1.414 0l-4.243-4.242zm-1.811 9.293h-11.42l-.445-.445c-.212-.213-.129-.609.188-.721 6.171-1.357 9.375-1.261 13.573-5.414l-1.414-1.414c-3.784 3.794-7.231 3.712-12.827 4.944-1.029.366-1.638 1.317-1.638 2.322 0 .605.224 1.217.705 1.697l9.301 9.301c.48.48 1.091.73 1.696.73 1 0 1.955-.629 2.323-1.664 1.235-5.617.884-9.288 4.683-13.086l-1.414-1.414c-1.732 1.732-2.689 3.398-3.311 5.164zm10.017 1.517c0 1.363-1.106 2.483-2.47 2.483-2.991 0-4.06-4.22.912-8-.058 2.365 1.558 3.302 1.558 5.517zm-2.371-3.466c-.346.189-.856.698-.934 1.333-.115.95.867 1.23.953-.044.04-.537 0-.794-.019-1.289z"/></svg>