<svg xmlns="http://www.w3.org/2000/svg" width="24" height="24" viewBox="0 0 24 24"><path d="M17.465 8.364l1.414 1.414-12.051 12.051c-1.562 1.562-4.095 1.562-5.657-.001-1.562-1.562-1.562-4.094 0-5.656l12.051-12.051 1.414 1.414-5.465 5.465h5.658l2.636-2.636zm2.828 0c.634.634 1.707.174 1.707-.707 0-.256-.098-.512-.293-.707l-5.657-5.658c-.195-.194-.451-.292-.707-.292-.889 0-1.333 1.081-.707 1.707l5.657 5.657zm3.707 7.153c0 1.363-1.106 2.483-2.47 2.483-2.991 0-4.06-4.22.912-8-.058 2.365 1.558 3.302 1.558 5.517zm-2.371-3.466c-.346.189-.856.698-.934 1.333-.115.95.867 1.23.953-.044.04-.537 0-.794-.019-1.289z"/></svg>