<svg xmlns="http://www.w3.org/2000/svg" width="24" height="24" viewBox="0 0 24 24"><path d="M8 5h-1v-2h1v2zm2-2h-1v2h1v-2zm5 0h-1v2h1v-2zm2 0h-1v2h1v-2zm-11 0h-1v3h1v-3zm13 0h-1v3h1v-3zm-6 0h-2v3h2v-3zm-1 13c-.553 0-1 .448-1 1s.447 1 1 1 1-.448 1-1-.447-1-1-1zm12-11v14c0 2.761-2.238 5-5 5h-14c-2.762 0-5-2.239-5-5v-14c0-2.761 2.238-5 5-5h14c2.762 0 5 2.239 5 5zm-9 13c0-1.657-1.344-3-3-3s-3 1.343-3 3 1.344 3 3 3 3-1.343 3-3zm7-13c0-1.654-1.346-3-3-3h-14c-1.654 0-3 1.346-3 3v7h7l3-4 3 4h7v-7z"/></svg>