<?xml version="1.0" encoding="UTF-8"?>
<svg width="24px" height="24px" viewBox="0 0 24 24" xmlns="http://www.w3.org/2000/svg" xmlns:xlink="http://www.w3.org/1999/xlink" version="1.1">
 <!-- Generated by Pixelmator Pro 1.6.4 -->
 <defs>
  <linearGradient id="linear-gradient" gradientUnits="userSpaceOnUse" x1="12.119" y1="23.99" x2="12.119" y2="-0.013">
   <stop offset="0" stop-color="#ff2719" stop-opacity="1"/>
   <stop offset="1" stop-color="#fd5163" stop-opacity="1"/>
  </linearGradient>
 </defs>
 <path id="Pfad" d="M12 2 C17.514 2 22 6.486 22 12 22 17.514 17.514 22 12 22 6.486 22 2 17.514 2 12 2 6.486 6.486 2 12 2 Z M12 0 C5.373 0 0 5.373 0 12 0 18.627 5.373 24 12 24 18.627 24 24 18.627 24 12 24 5.373 18.627 0 12 0 Z M11 6 L13 6 13 14 11 14 Z M12 18.25 C11.31 18.25 10.75 17.69 10.75 17 10.75 16.31 11.31 15.75 12 15.75 12.69 15.75 13.25 16.31 13.25 17 13.25 17.69 12.69 18.25 12 18.25 Z" fill-opacity="1" fill="url(#linear-gradient)" stroke="none"/>
</svg>
