<svg xmlns="http://www.w3.org/2000/svg" width="24" height="24" viewBox="0 0 24 24"><path d="M14.969 7.547l.031.191c0 .193-.096.379-.264.496-.538.372-.467.278-.67.885-.084.253-.33.424-.605.424h-.002c-.664-.002-.549-.038-1.083.338-.112.08-.244.119-.376.119s-.264-.039-.376-.118c-.534-.376-.419-.34-1.083-.338h-.002c-.275 0-.521-.171-.605-.424-.204-.607-.133-.514-.669-.886-.169-.117-.265-.303-.265-.496l.031-.19c.207-.604.208-.488 0-1.094l-.031-.191c0-.193.096-.379.265-.497.536-.372.465-.277.669-.885.084-.253.33-.424.605-.424h.002c.662.002.544.041 1.083-.338.112-.08.244-.119.376-.119s.264.039.376.118c.534.376.419.34 1.083.338h.002c.275 0 .521.171.605.424.203.607.132.513.67.885.168.118.264.304.264.497l-.031.191c-.207.604-.208.488 0 1.094zm-1.469-1.198l-.465-.464-1.41 1.446-.66-.627-.465.464 1.125 1.091 1.875-1.91zm2.5 4.651h-8v1h8v-1zm-1 2h-6v1h6v-1zm1 2h-8v1h8v-1zm-7.771 4c-.77 3.458-3.229 3.5-3.229 1.375v-15.333c0-1.333-.062-2.386-1-3.042h13c1.354 0 2 .625 2 2v13h2v-13c0-2.021-.844-4-4-4h-12c-3.494 0-5 2.906-5 5h3v16c0 1.657 1.343 3 3 3h14c2.688-.531 3.875-2.938 4-5h-15.771z"/></svg>