<svg width="24" height="24" xmlns="http://www.w3.org/2000/svg" fill-rule="evenodd" clip-rule="evenodd"><path d="M12.434 22.586l7.859-7.858.707.707-8.565 8.565-.001-.001v.001l-12.434-12.434.707-.707 11.727 11.727zm-.033-1.7l-12.401-12.405v-8.481h8.441l12.445 12.401-8.485 8.485zm-4.373-19.886h-7.028v7.067l11.401 11.405 7.07-7.07s-7.534-7.506-11.443-11.402zm-1.598 2.594c.78.78.78 2.048 0 2.828-.781.781-2.048.781-2.829 0-.78-.78-.78-2.048 0-2.828.781-.781 2.048-.781 2.829 0zm-.707.707c.39.39.39 1.024 0 1.414-.391.39-1.024.39-1.414 0-.391-.39-.391-1.024 0-1.414.39-.39 1.023-.39 1.414 0z"/></svg>