<svg width="24" height="24" xmlns="http://www.w3.org/2000/svg" fill-rule="evenodd" clip-rule="evenodd"><path d="M24 24h-24v-18h6v6l6-4v4.008l6-4.008v4.017l6-4.017v16zm-20-16h-2v14h20v-10l-6 4v-4l-6 4v-4l-6 4v-8zm11 12h-2v-3h2v3zm-4 0h-2v-3h2v3zm-4 0h-2v-3h2v3zm12 0h-2v-3h2v3zm-16-15h-1c.198-2.182 1.785-4 3.5-4 .246 0 .478.059.683.164.316-.687 1.011-1.164 1.817-1.164s1.501.477 1.817 1.164c.205-.105.437-.164.683-.164.828 0 1.5.672 1.5 1.5s-.672 1.5-1.5 1.5c-.246 0-.478-.059-.683-.164-.316.687-1.011 1.164-1.817 1.164-2.345 0-3.722-2.951-5 0z"/></svg>