<svg width="24" height="24" xmlns="http://www.w3.org/2000/svg" fill-rule="evenodd" clip-rule="evenodd"><path d="M5.829 21c-.412 1.165-1.524 2-2.829 2-1.656 0-3-1.344-3-3s1.344-3 3-3c1.305 0 2.417.835 2.829 2h3.342c.412-1.165 1.524-2 2.829-2 1.305 0 2.417.835 2.829 2h3.342c.412-1.165 1.524-2 2.829-2 1.656 0 3 1.344 3 3s-1.344 3-3 3c-1.305 0-2.417-.835-2.829-2h-3.342c-.412 1.165-1.524 2-2.829 2-1.305 0-2.417-.835-2.829-2h-3.342zm6.171-2c.552 0 1 .448 1 1s-.448 1-1 1-1-.448-1-1 .448-1 1-1zm0-18c-2.624 0-5 2.127-5 4.751 0 2.624 2.168 5.756 5 10.249 2.832-4.493 5-7.625 5-10.249 0-2.624-2.376-4.751-5-4.751zm0 7c-1.105 0-2-.895-2-2s.895-2 2-2 2 .895 2 2-.895 2-2 2z"/></svg>